<svg xmlns="http://www.w3.org/2000/svg" viewBox="0 0 24 24">
    <rect width="24" height="24" rx="5" fill="#18181b"/>
    <path
        fill="#fafafa"
        fill-rule="evenodd"
        clip-rule="evenodd"
        d="M11.655 19.763l.052.03.021.012a.57.57 0 00.542 0l.021-.011.053-.031a12.73 12.73 0 00.858-.556 14.685 14.685 0 002.012-1.712c1.458-1.492 2.973-3.735 2.973-6.62a6.187 6.187 0 00-12.375 0c0 2.885 1.515 5.128 2.972 6.62a14.685 14.685 0 002.012 1.712 12.73 12.73 0 00.859.556zM12 13.125a2.25 2.25 0 100-4.5 2.25 2.25 0 000 4.5z"
    />
</svg>
